<?xml version="1.0" standalone="no"?><!DOCTYPE svg PUBLIC "-//W3C//DTD SVG 1.1//EN" "http://www.w3.org/Graphics/SVG/1.1/DTD/svg11.dtd"><svg t="1605199258295" class="icon" viewBox="0 0 1024 1024" version="1.1" xmlns="http://www.w3.org/2000/svg" p-id="3101" xmlns:xlink="http://www.w3.org/1999/xlink" width="200" height="200"><defs><style type="text/css"></style></defs><path d="M90.773 98c17.373 0 31.49 13.966 31.77 31.3l0.004 0.527v737.52h785.185c17.372 0 31.488 13.965 31.773 31.3v0.526c0 17.402-13.942 31.542-31.248 31.827H90.773C73.401 931 59.285 917.034 59 899.7V129.827C59 112.249 73.225 98 90.773 98z m851.295 187.117c12.381 15.402 11.806 39.464-1.196 54.047l-0.398 0.439-249.73 228.836c-11.064 12.013-27.706 13.78-40.448 4.358l-0.385-0.29-165.312-138.519-225.58 236.168c-12.338 15.448-33.032 16.494-46.473 2.46l-0.405-0.43c-13.293-14.34-14.192-38.389-2.116-54.01l0.37-0.47L455.04 357.668c10.899-13.646 28.61-16.273 42.094-6.318l0.407 0.305 166.954 139.771 230.69-208.161c13.386-14.535 34.376-13.706 46.883 1.852z" fill="#333333" p-id="3102"></path></svg>